<mxfile host="65bd71144e">
    <diagram name="Page-1" id="b520641d-4fe3-3701-9064-5fc419738815">
        <mxGraphModel dx="1559" dy="789" grid="1" gridSize="10" guides="1" tooltips="1" connect="1" arrows="1" fold="1" page="1" pageScale="1" pageWidth="1100" pageHeight="850" background="none" math="0" shadow="0">
            <root>
                <mxCell id="0"/>
                <mxCell id="1" parent="0"/>
                <mxCell id="164" value="共通ヘッダーメニュー" style="swimlane;html=1;fontStyle=0;childLayout=stackLayout;horizontal=1;startSize=26;fillColor=#e0e0e0;horizontalStack=0;resizeParent=1;resizeLast=0;collapsible=1;marginBottom=0;swimlaneFillColor=#ffffff;align=center;rounded=0;shadow=0;comic=0;labelBackgroundColor=none;strokeWidth=1;fontFamily=Verdana;fontSize=12" vertex="1" parent="1">
                    <mxGeometry x="1230" y="110" width="181" height="270" as="geometry"/>
                </mxCell>
                <mxCell id="165" value="・ロゴ（トップページに戻る）" style="text;html=1;strokeColor=default;fillColor=none;spacingLeft=4;spacingRight=4;whiteSpace=wrap;overflow=hidden;rotatable=0;points=[[0,0.5],[1,0.5]];portConstraint=eastwest;" vertex="1" parent="164">
                    <mxGeometry y="26" width="181" height="26" as="geometry"/>
                </mxCell>
                <mxCell id="166" value="・新規登録ボタン" style="text;html=1;strokeColor=#6c8ebf;fillColor=#dae8fc;spacingLeft=4;spacingRight=4;whiteSpace=wrap;overflow=hidden;rotatable=0;points=[[0,0.5],[1,0.5]];portConstraint=eastwest;" vertex="1" parent="164">
                    <mxGeometry y="52" width="181" height="26" as="geometry"/>
                </mxCell>
                <mxCell id="167" value="・ログインボタン" style="text;html=1;strokeColor=#6c8ebf;fillColor=#dae8fc;spacingLeft=4;spacingRight=4;whiteSpace=wrap;overflow=hidden;rotatable=0;points=[[0,0.5],[1,0.5]];portConstraint=eastwest;" vertex="1" parent="164">
                    <mxGeometry y="78" width="181" height="26" as="geometry"/>
                </mxCell>
                <mxCell id="168" value="・ログアウトボタン" style="text;html=1;strokeColor=#b85450;fillColor=#f8cecc;spacingLeft=4;spacingRight=4;whiteSpace=wrap;overflow=hidden;rotatable=0;points=[[0,0.5],[1,0.5]];portConstraint=eastwest;" vertex="1" parent="164">
                    <mxGeometry y="104" width="181" height="26" as="geometry"/>
                </mxCell>
                <mxCell id="169" value="・トピック検索" style="text;html=1;spacingLeft=4;spacingRight=4;whiteSpace=wrap;overflow=hidden;rotatable=0;points=[[0,0.5],[1,0.5]];portConstraint=eastwest;" vertex="1" parent="164">
                    <mxGeometry y="130" width="181" height="26" as="geometry"/>
                </mxCell>
                <mxCell id="170" value="・トピック作成" style="text;html=1;strokeColor=#b85450;fillColor=#f8cecc;spacingLeft=4;spacingRight=4;whiteSpace=wrap;overflow=hidden;rotatable=0;points=[[0,0.5],[1,0.5]];portConstraint=eastwest;" vertex="1" parent="164">
                    <mxGeometry y="156" width="181" height="26" as="geometry"/>
                </mxCell>
                <mxCell id="171" value="・ユーザ情報編集" style="text;html=1;strokeColor=#b85450;fillColor=#f8cecc;spacingLeft=4;spacingRight=4;whiteSpace=wrap;overflow=hidden;rotatable=0;points=[[0,0.5],[1,0.5]];portConstraint=eastwest;" vertex="1" parent="164">
                    <mxGeometry y="182" width="181" height="26" as="geometry"/>
                </mxCell>
                <mxCell id="172" value="" style="text;html=1;strokeColor=default;fillColor=none;spacingLeft=4;spacingRight=4;whiteSpace=wrap;overflow=hidden;rotatable=0;points=[[0,0.5],[1,0.5]];portConstraint=eastwest;" vertex="1" parent="164">
                    <mxGeometry y="208" width="181" height="26" as="geometry"/>
                </mxCell>
                <mxCell id="173" value="&lt;font style=&quot;font-size: 20px;&quot;&gt;クローズドコンテンツの画面フロー（ユーザ側）&lt;/font&gt;" style="text;html=1;align=left;verticalAlign=middle;resizable=0;points=[];autosize=1;strokeColor=none;fillColor=none;" vertex="1" parent="1">
                    <mxGeometry x="1120" y="40" width="460" height="40" as="geometry"/>
                </mxCell>
                <mxCell id="174" value="非ログイン時" style="whiteSpace=wrap;html=1;fillColor=#cce5ff;strokeColor=#36393d;" vertex="1" parent="1">
                    <mxGeometry x="1120" y="110" width="90" height="20" as="geometry"/>
                </mxCell>
                <mxCell id="175" value="ログイン時" style="whiteSpace=wrap;html=1;fillColor=#ffcccc;strokeColor=#36393d;" vertex="1" parent="1">
                    <mxGeometry x="1120" y="135" width="90" height="20" as="geometry"/>
                </mxCell>
                <mxCell id="176" value="非ログイン時トップページ" style="swimlane;html=1;fontStyle=0;childLayout=stackLayout;horizontal=1;startSize=26;fillColor=#dae8fc;horizontalStack=0;resizeParent=1;resizeLast=0;collapsible=1;marginBottom=0;swimlaneFillColor=#ffffff;align=center;rounded=0;shadow=0;comic=0;labelBackgroundColor=none;strokeWidth=1;fontFamily=Verdana;fontSize=12;swimlaneLine=1;glass=0;strokeColor=#6c8ebf;" vertex="1" parent="1">
                    <mxGeometry x="1231" y="550" width="179" height="336" as="geometry">
                        <mxRectangle x="131" y="1840" width="110" height="30" as="alternateBounds"/>
                    </mxGeometry>
                </mxCell>
                <mxCell id="177" value="&lt;font style=&quot;font-size: 12px;&quot;&gt;・公開トピック一覧&lt;/font&gt;" style="text;html=1;strokeColor=default;fillColor=none;spacingLeft=4;spacingRight=4;whiteSpace=wrap;overflow=hidden;rotatable=0;points=[[0,0.5],[1,0.5]];portConstraint=eastwest;" vertex="1" parent="176">
                    <mxGeometry y="26" width="179" height="26" as="geometry"/>
                </mxCell>
                <mxCell id="178" value="・新規登録ボタン" style="text;html=1;strokeColor=#6c8ebf;fillColor=#dae8fc;spacingLeft=4;spacingRight=4;whiteSpace=wrap;overflow=hidden;rotatable=0;points=[[0,0.5],[1,0.5]];portConstraint=eastwest;" vertex="1" parent="176">
                    <mxGeometry y="52" width="179" height="26" as="geometry"/>
                </mxCell>
                <mxCell id="179" value="ログイン" style="swimlane;html=1;fontStyle=0;childLayout=stackLayout;horizontal=1;startSize=26;fillColor=#dae8fc;horizontalStack=0;resizeParent=1;resizeLast=0;collapsible=1;marginBottom=0;swimlaneFillColor=#ffffff;align=center;rounded=0;shadow=0;comic=0;labelBackgroundColor=none;strokeWidth=1;fontFamily=Verdana;fontSize=12;strokeColor=#6c8ebf;" vertex="1" parent="1">
                    <mxGeometry x="1530" y="370" width="180" height="220" as="geometry"/>
                </mxCell>
                <mxCell id="180" value="・IDまたはメールアドレス" style="text;html=1;strokeColor=default;fillColor=none;spacingLeft=4;spacingRight=4;whiteSpace=wrap;overflow=hidden;rotatable=0;points=[[0,0.5],[1,0.5]];portConstraint=eastwest;" vertex="1" parent="179">
                    <mxGeometry y="26" width="180" height="26" as="geometry"/>
                </mxCell>
                <mxCell id="181" value="・パスワード" style="text;html=1;strokeColor=default;fillColor=none;spacingLeft=4;spacingRight=4;whiteSpace=wrap;overflow=hidden;rotatable=0;points=[[0,0.5],[1,0.5]];portConstraint=eastwest;" vertex="1" parent="179">
                    <mxGeometry y="52" width="180" height="26" as="geometry"/>
                </mxCell>
                <mxCell id="182" value="・パスワードを忘れた場合" style="text;html=1;strokeColor=default;fillColor=none;spacingLeft=4;spacingRight=4;whiteSpace=wrap;overflow=hidden;rotatable=0;points=[[0,0.5],[1,0.5]];portConstraint=eastwest;" vertex="1" parent="179">
                    <mxGeometry y="78" width="180" height="26" as="geometry"/>
                </mxCell>
                <mxCell id="183" value="・新規登録画面へのリンク" style="text;html=1;strokeColor=default;fillColor=none;spacingLeft=4;spacingRight=4;whiteSpace=wrap;overflow=hidden;rotatable=0;points=[[0,0.5],[1,0.5]];portConstraint=eastwest;" vertex="1" parent="179">
                    <mxGeometry y="104" width="180" height="26" as="geometry"/>
                </mxCell>
                <mxCell id="184" value="新規登録-入力画面" style="swimlane;html=1;fontStyle=0;childLayout=stackLayout;horizontal=1;startSize=26;fillColor=#dae8fc;horizontalStack=0;resizeParent=1;resizeLast=0;collapsible=1;marginBottom=0;swimlaneFillColor=#ffffff;align=center;rounded=0;shadow=0;comic=0;labelBackgroundColor=none;strokeWidth=1;fontFamily=Verdana;fontSize=12;strokeColor=#6c8ebf;" vertex="1" parent="1">
                    <mxGeometry x="1530" y="110" width="180" height="220" as="geometry">
                        <mxRectangle x="1520" y="100" width="90" height="30" as="alternateBounds"/>
                    </mxGeometry>
                </mxCell>
                <mxCell id="185" value="・入力欄 - ID" style="text;html=1;strokeColor=default;fillColor=none;spacingLeft=4;spacingRight=4;whiteSpace=wrap;overflow=hidden;rotatable=0;points=[[0,0.5],[1,0.5]];portConstraint=eastwest;" vertex="1" parent="184">
                    <mxGeometry y="26" width="180" height="26" as="geometry"/>
                </mxCell>
                <mxCell id="186" value="・入力欄 -&amp;nbsp;メールアドレス" style="text;html=1;strokeColor=default;fillColor=none;spacingLeft=4;spacingRight=4;whiteSpace=wrap;overflow=hidden;rotatable=0;points=[[0,0.5],[1,0.5]];portConstraint=eastwest;" vertex="1" parent="184">
                    <mxGeometry y="52" width="180" height="26" as="geometry"/>
                </mxCell>
                <mxCell id="187" value="・入力欄 -&amp;nbsp;パスワード" style="text;html=1;strokeColor=default;fillColor=none;spacingLeft=4;spacingRight=4;whiteSpace=wrap;overflow=hidden;rotatable=0;points=[[0,0.5],[1,0.5]];portConstraint=eastwest;" vertex="1" parent="184">
                    <mxGeometry y="78" width="180" height="26" as="geometry"/>
                </mxCell>
                <mxCell id="188" value="・確認ボタン" style="text;html=1;strokeColor=default;fillColor=none;spacingLeft=4;spacingRight=4;whiteSpace=wrap;overflow=hidden;rotatable=0;points=[[0,0.5],[1,0.5]];portConstraint=eastwest;" vertex="1" parent="184">
                    <mxGeometry y="104" width="180" height="26" as="geometry"/>
                </mxCell>
                <mxCell id="189" value="・ログインページへのリンク" style="text;html=1;strokeColor=default;fillColor=none;spacingLeft=4;spacingRight=4;whiteSpace=wrap;overflow=hidden;rotatable=0;points=[[0,0.5],[1,0.5]];portConstraint=eastwest;" vertex="1" parent="184">
                    <mxGeometry y="130" width="180" height="26" as="geometry"/>
                </mxCell>
                <mxCell id="190" style="edgeStyle=orthogonalEdgeStyle;rounded=0;orthogonalLoop=1;jettySize=auto;html=1;exitX=1;exitY=0.5;exitDx=0;exitDy=0;entryX=-0.007;entryY=0.069;entryDx=0;entryDy=0;entryPerimeter=0;fillColor=#dae8fc;strokeColor=#6c8ebf;" edge="1" parent="1" source="166" target="184">
                    <mxGeometry relative="1" as="geometry"/>
                </mxCell>
                <mxCell id="191" style="edgeStyle=orthogonalEdgeStyle;rounded=0;orthogonalLoop=1;jettySize=auto;html=1;exitX=1;exitY=0.5;exitDx=0;exitDy=0;entryX=0;entryY=0.058;entryDx=0;entryDy=0;entryPerimeter=0;fillColor=#dae8fc;strokeColor=#6c8ebf;" edge="1" parent="1" source="167" target="179">
                    <mxGeometry relative="1" as="geometry"/>
                </mxCell>
                <mxCell id="192" value="&lt;font style=&quot;font-size: 20px;&quot;&gt;クローズドコンテンツの操作フロー（ユーザ側）&lt;/font&gt;" style="text;html=1;align=left;verticalAlign=middle;resizable=0;points=[];autosize=1;strokeColor=none;fillColor=none;" vertex="1" parent="1">
                    <mxGeometry x="30" y="40" width="460" height="40" as="geometry"/>
                </mxCell>
                <mxCell id="193" value="対外コンテンツからリンク遷移" style="whiteSpace=wrap;html=1;" vertex="1" parent="1">
                    <mxGeometry x="30" y="140" width="120" height="60" as="geometry"/>
                </mxCell>
                <mxCell id="194" value="" style="edgeStyle=none;orthogonalLoop=1;jettySize=auto;html=1;rounded=0;" edge="1" parent="1">
                    <mxGeometry width="100" relative="1" as="geometry">
                        <mxPoint x="150" y="170" as="sourcePoint"/>
                        <mxPoint x="190" y="170" as="targetPoint"/>
                        <Array as="points"/>
                    </mxGeometry>
                </mxCell>
                <mxCell id="195" value="ログイン判定" style="whiteSpace=wrap;html=1;" vertex="1" parent="1">
                    <mxGeometry x="190" y="140" width="120" height="60" as="geometry"/>
                </mxCell>
                <mxCell id="196" value="&lt;font style=&quot;font-size: 20px;&quot;&gt;クローズドコンテンツの操作フロー（管理者側）&lt;br&gt;→管理者権限を持つアカウントのみアクセス可&lt;br&gt;&lt;/font&gt;" style="text;html=1;align=left;verticalAlign=middle;resizable=0;points=[];autosize=1;strokeColor=none;fillColor=none;" vertex="1" parent="1">
                    <mxGeometry x="30" y="770" width="460" height="60" as="geometry"/>
                </mxCell>
                <mxCell id="197" value="ログイン" style="whiteSpace=wrap;html=1;" vertex="1" parent="1">
                    <mxGeometry x="30" y="880" width="120" height="60" as="geometry"/>
                </mxCell>
                <mxCell id="198" value="" style="edgeStyle=none;orthogonalLoop=1;jettySize=auto;html=1;rounded=0;" edge="1" parent="1">
                    <mxGeometry width="100" relative="1" as="geometry">
                        <mxPoint x="150" y="909.62" as="sourcePoint"/>
                        <mxPoint x="190" y="910" as="targetPoint"/>
                        <Array as="points"/>
                    </mxGeometry>
                </mxCell>
                <mxCell id="199" value="ユーザ一覧取得" style="whiteSpace=wrap;html=1;" vertex="1" parent="1">
                    <mxGeometry x="190" y="880" width="120" height="60" as="geometry"/>
                </mxCell>
                <mxCell id="200" value="直リンク" style="whiteSpace=wrap;html=1;" vertex="1" parent="1">
                    <mxGeometry x="30" y="215" width="120" height="60" as="geometry"/>
                </mxCell>
                <mxCell id="201" value="" style="edgeStyle=none;orthogonalLoop=1;jettySize=auto;html=1;rounded=0;entryX=0;entryY=0.5;entryDx=0;entryDy=0;" edge="1" parent="1" target="195">
                    <mxGeometry width="100" relative="1" as="geometry">
                        <mxPoint x="150" y="244.62" as="sourcePoint"/>
                        <mxPoint x="190" y="245" as="targetPoint"/>
                        <Array as="points">
                            <mxPoint x="170" y="245"/>
                            <mxPoint x="170" y="170"/>
                        </Array>
                    </mxGeometry>
                </mxCell>
                <mxCell id="202" value="トップページ&lt;br&gt;（非ログイン）&lt;br&gt;表示" style="whiteSpace=wrap;html=1;" vertex="1" parent="1">
                    <mxGeometry x="350" y="140" width="120" height="60" as="geometry"/>
                </mxCell>
                <mxCell id="203" value="&lt;font style=&quot;font-size: 10px;&quot;&gt;初めてだと&lt;br&gt;何ができるかわからない&lt;br&gt;&lt;/font&gt;" style="ellipse;shape=cloud;whiteSpace=wrap;html=1;fillColor=#f5f5f5;fontColor=#333333;strokeColor=#666666;" vertex="1" parent="1">
                    <mxGeometry x="360" y="95" width="170" height="50" as="geometry"/>
                </mxCell>
                <mxCell id="204" value="&lt;font style=&quot;font-size: 9px;&quot;&gt;チュートリアル&lt;/font&gt;" style="ellipse;whiteSpace=wrap;html=1;fillColor=#fff2cc;strokeColor=#d6b656;" vertex="1" parent="1">
                    <mxGeometry x="480" y="95" width="80" height="20" as="geometry"/>
                </mxCell>
                <mxCell id="205" value="" style="edgeStyle=none;orthogonalLoop=1;jettySize=auto;html=1;rounded=0;" edge="1" parent="1">
                    <mxGeometry width="100" relative="1" as="geometry">
                        <mxPoint x="310" y="169.86" as="sourcePoint"/>
                        <mxPoint x="350" y="169.86" as="targetPoint"/>
                        <Array as="points"/>
                    </mxGeometry>
                </mxCell>
                <mxCell id="206" value="トップページ&lt;br style=&quot;border-color: var(--border-color);&quot;&gt;（ログイン）&lt;br style=&quot;border-color: var(--border-color);&quot;&gt;表示" style="whiteSpace=wrap;html=1;" vertex="1" parent="1">
                    <mxGeometry x="350" y="380" width="120" height="60" as="geometry"/>
                </mxCell>
                <mxCell id="207" value="" style="edgeStyle=none;orthogonalLoop=1;jettySize=auto;html=1;rounded=0;" edge="1" parent="1">
                    <mxGeometry width="100" relative="1" as="geometry">
                        <mxPoint x="310" y="170" as="sourcePoint"/>
                        <mxPoint x="350" y="409.86" as="targetPoint"/>
                        <Array as="points">
                            <mxPoint x="330" y="170"/>
                            <mxPoint x="330" y="410"/>
                        </Array>
                    </mxGeometry>
                </mxCell>
                <mxCell id="208" value="アプリの説明が&lt;br&gt;読める" style="whiteSpace=wrap;html=1;" vertex="1" parent="1">
                    <mxGeometry x="510" y="140" width="120" height="60" as="geometry"/>
                </mxCell>
                <mxCell id="209" value="" style="edgeStyle=none;orthogonalLoop=1;jettySize=auto;html=1;rounded=0;" edge="1" parent="1">
                    <mxGeometry width="100" relative="1" as="geometry">
                        <mxPoint x="470" y="169.86" as="sourcePoint"/>
                        <mxPoint x="510" y="169.86" as="targetPoint"/>
                        <Array as="points"/>
                    </mxGeometry>
                </mxCell>
                <mxCell id="210" value="ログイン時トップページ" style="swimlane;html=1;fontStyle=0;childLayout=stackLayout;horizontal=1;startSize=26;fillColor=#f8cecc;horizontalStack=0;resizeParent=1;resizeLast=0;collapsible=1;marginBottom=0;swimlaneFillColor=#ffffff;align=center;rounded=0;shadow=0;comic=0;labelBackgroundColor=none;strokeWidth=1;fontFamily=Verdana;fontSize=12;swimlaneLine=1;glass=0;strokeColor=#b85450;" vertex="1" parent="1">
                    <mxGeometry x="1231" y="920" width="179" height="336" as="geometry">
                        <mxRectangle x="131" y="1840" width="110" height="30" as="alternateBounds"/>
                    </mxGeometry>
                </mxCell>
                <mxCell id="211" value="&lt;font style=&quot;font-size: 12px;&quot;&gt;・公開トピック一覧&lt;/font&gt;" style="text;html=1;strokeColor=default;fillColor=none;spacingLeft=4;spacingRight=4;whiteSpace=wrap;overflow=hidden;rotatable=0;points=[[0,0.5],[1,0.5]];portConstraint=eastwest;" vertex="1" parent="210">
                    <mxGeometry y="26" width="179" height="26" as="geometry"/>
                </mxCell>
                <mxCell id="212" value="&lt;font style=&quot;font-size: 12px;&quot;&gt;・トピック作成&lt;/font&gt;" style="text;html=1;strokeColor=#b85450;fillColor=#f8cecc;spacingLeft=4;spacingRight=4;whiteSpace=wrap;overflow=hidden;rotatable=0;points=[[0,0.5],[1,0.5]];portConstraint=eastwest;" vertex="1" parent="210">
                    <mxGeometry y="52" width="179" height="26" as="geometry"/>
                </mxCell>
                <mxCell id="213" style="edgeStyle=orthogonalEdgeStyle;rounded=0;orthogonalLoop=1;jettySize=auto;html=1;exitX=1;exitY=0.5;exitDx=0;exitDy=0;entryX=1.002;entryY=0.047;entryDx=0;entryDy=0;entryPerimeter=0;" edge="1" parent="1" target="176">
                    <mxGeometry relative="1" as="geometry">
                        <mxPoint x="1411.0010000000002" y="575.824" as="targetPoint"/>
                        <Array as="points">
                            <mxPoint x="1434" y="155"/>
                            <mxPoint x="1434" y="282"/>
                            <mxPoint x="1433" y="282"/>
                            <mxPoint x="1433" y="566"/>
                            <mxPoint x="1410" y="566"/>
                        </Array>
                        <mxPoint x="1413.97" y="155" as="sourcePoint"/>
                    </mxGeometry>
                </mxCell>
                <mxCell id="214" value="" style="edgeStyle=none;orthogonalLoop=1;jettySize=auto;html=1;rounded=0;" edge="1" parent="1">
                    <mxGeometry width="100" relative="1" as="geometry">
                        <mxPoint x="310" y="909.62" as="sourcePoint"/>
                        <mxPoint x="350" y="910" as="targetPoint"/>
                        <Array as="points"/>
                    </mxGeometry>
                </mxCell>
                <mxCell id="215" value="ユーザ追加" style="whiteSpace=wrap;html=1;" vertex="1" parent="1">
                    <mxGeometry x="350" y="880" width="120" height="60" as="geometry"/>
                </mxCell>
                <mxCell id="216" value="" style="edgeStyle=none;orthogonalLoop=1;jettySize=auto;html=1;rounded=0;exitX=1;exitY=0.5;exitDx=0;exitDy=0;" edge="1" parent="1" source="199">
                    <mxGeometry width="100" relative="1" as="geometry">
                        <mxPoint x="310" y="989.62" as="sourcePoint"/>
                        <mxPoint x="350" y="990" as="targetPoint"/>
                        <Array as="points">
                            <mxPoint x="330" y="910"/>
                            <mxPoint x="330" y="990"/>
                        </Array>
                    </mxGeometry>
                </mxCell>
                <mxCell id="217" value="ユーザ更新" style="whiteSpace=wrap;html=1;" vertex="1" parent="1">
                    <mxGeometry x="350" y="960" width="120" height="60" as="geometry"/>
                </mxCell>
                <mxCell id="218" value="" style="edgeStyle=none;orthogonalLoop=1;jettySize=auto;html=1;rounded=0;exitX=1;exitY=0.5;exitDx=0;exitDy=0;" edge="1" parent="1" source="199">
                    <mxGeometry width="100" relative="1" as="geometry">
                        <mxPoint x="310" y="990" as="sourcePoint"/>
                        <mxPoint x="350" y="1070" as="targetPoint"/>
                        <Array as="points">
                            <mxPoint x="330" y="910"/>
                            <mxPoint x="330" y="1070"/>
                        </Array>
                    </mxGeometry>
                </mxCell>
                <mxCell id="219" value="ユーザ削除" style="whiteSpace=wrap;html=1;" vertex="1" parent="1">
                    <mxGeometry x="350" y="1040" width="120" height="60" as="geometry"/>
                </mxCell>
                <mxCell id="220" value="&lt;font style=&quot;font-size: 9px;&quot;&gt;ユーザ登録がよくわからないっていう人のため&lt;/font&gt;" style="ellipse;whiteSpace=wrap;html=1;fillColor=#fff2cc;strokeColor=#d6b656;" vertex="1" parent="1">
                    <mxGeometry x="450" y="870" width="120" height="40" as="geometry"/>
                </mxCell>
                <mxCell id="221" value="&lt;font size=&quot;1&quot;&gt;必要に応じて管理権限付与もここでできるように&lt;/font&gt;" style="ellipse;whiteSpace=wrap;html=1;fillColor=#fff2cc;strokeColor=#d6b656;" vertex="1" parent="1">
                    <mxGeometry x="570" y="950" width="140" height="40" as="geometry"/>
                </mxCell>
                <mxCell id="222" style="edgeStyle=orthogonalEdgeStyle;rounded=0;orthogonalLoop=1;jettySize=auto;html=1;exitX=1;exitY=0.5;exitDx=0;exitDy=0;fillColor=#dae8fc;strokeColor=#6c8ebf;entryX=1.006;entryY=0.05;entryDx=0;entryDy=0;entryPerimeter=0;" edge="1" parent="1" source="189" target="179">
                    <mxGeometry relative="1" as="geometry">
                        <mxPoint x="1710" y="230" as="sourcePoint"/>
                        <mxPoint x="1760" y="330" as="targetPoint"/>
                        <Array as="points">
                            <mxPoint x="1750" y="253"/>
                            <mxPoint x="1750" y="381"/>
                        </Array>
                    </mxGeometry>
                </mxCell>
                <mxCell id="223" value="新規登録-確認画面" style="swimlane;html=1;fontStyle=0;childLayout=stackLayout;horizontal=1;startSize=26;fillColor=#dae8fc;horizontalStack=0;resizeParent=1;resizeLast=0;collapsible=1;marginBottom=0;swimlaneFillColor=#ffffff;align=center;rounded=0;shadow=0;comic=0;labelBackgroundColor=none;strokeWidth=1;fontFamily=Verdana;fontSize=12;strokeColor=#6c8ebf;" vertex="1" parent="1">
                    <mxGeometry x="1810" y="110" width="180" height="80" as="geometry">
                        <mxRectangle x="1520" y="100" width="90" height="30" as="alternateBounds"/>
                    </mxGeometry>
                </mxCell>
                <mxCell id="224" value="・修正する ボタン" style="text;html=1;strokeColor=default;fillColor=none;spacingLeft=4;spacingRight=4;whiteSpace=wrap;overflow=hidden;rotatable=0;points=[[0,0.5],[1,0.5]];portConstraint=eastwest;" vertex="1" parent="223">
                    <mxGeometry y="26" width="180" height="26" as="geometry"/>
                </mxCell>
                <mxCell id="225" value="・完了 ボタン" style="text;html=1;strokeColor=default;fillColor=none;spacingLeft=4;spacingRight=4;whiteSpace=wrap;overflow=hidden;rotatable=0;points=[[0,0.5],[1,0.5]];portConstraint=eastwest;" vertex="1" parent="223">
                    <mxGeometry y="52" width="180" height="28" as="geometry"/>
                </mxCell>
                <mxCell id="226" value="&lt;font size=&quot;1&quot;&gt;入力したアドレス宛にメール送信する方式にする？&lt;/font&gt;" style="ellipse;whiteSpace=wrap;html=1;fillColor=#fff2cc;strokeColor=#d6b656;" vertex="1" parent="1">
                    <mxGeometry x="1580" y="60" width="130" height="50" as="geometry"/>
                </mxCell>
                <mxCell id="227" value="新規登録-完了画面" style="swimlane;html=1;fontStyle=0;childLayout=stackLayout;horizontal=1;startSize=26;fillColor=#dae8fc;horizontalStack=0;resizeParent=1;resizeLast=0;collapsible=1;marginBottom=0;swimlaneFillColor=#ffffff;align=center;rounded=0;shadow=0;comic=0;labelBackgroundColor=none;strokeWidth=1;fontFamily=Verdana;fontSize=12;strokeColor=#6c8ebf;" vertex="1" parent="1">
                    <mxGeometry x="2090" y="110" width="180" height="52" as="geometry">
                        <mxRectangle x="1520" y="100" width="90" height="30" as="alternateBounds"/>
                    </mxGeometry>
                </mxCell>
                <mxCell id="228" value="・ログインページへのリンク" style="text;html=1;strokeColor=default;fillColor=none;spacingLeft=4;spacingRight=4;whiteSpace=wrap;overflow=hidden;rotatable=0;points=[[0,0.5],[1,0.5]];portConstraint=eastwest;" vertex="1" parent="227">
                    <mxGeometry y="26" width="180" height="26" as="geometry"/>
                </mxCell>
                <mxCell id="229" style="edgeStyle=orthogonalEdgeStyle;rounded=0;orthogonalLoop=1;jettySize=auto;html=1;exitX=1;exitY=0.5;exitDx=0;exitDy=0;entryX=-0.006;entryY=0.163;entryDx=0;entryDy=0;entryPerimeter=0;fillColor=#dae8fc;strokeColor=#6c8ebf;" edge="1" parent="1" source="188" target="223">
                    <mxGeometry relative="1" as="geometry">
                        <mxPoint x="1720" y="230" as="sourcePoint"/>
                        <mxPoint x="1722" y="361" as="targetPoint"/>
                        <Array as="points">
                            <mxPoint x="1770" y="227"/>
                            <mxPoint x="1770" y="123"/>
                        </Array>
                    </mxGeometry>
                </mxCell>
                <mxCell id="230" style="edgeStyle=orthogonalEdgeStyle;rounded=0;orthogonalLoop=1;jettySize=auto;html=1;exitX=1;exitY=0.5;exitDx=0;exitDy=0;entryX=0;entryY=0.25;entryDx=0;entryDy=0;fillColor=#dae8fc;strokeColor=#6c8ebf;" edge="1" parent="1" source="225" target="227">
                    <mxGeometry relative="1" as="geometry">
                        <mxPoint x="1980" y="239" as="sourcePoint"/>
                        <mxPoint x="2079" y="135" as="targetPoint"/>
                    </mxGeometry>
                </mxCell>
                <mxCell id="231" style="edgeStyle=orthogonalEdgeStyle;rounded=0;orthogonalLoop=1;jettySize=auto;html=1;fillColor=#dae8fc;strokeColor=#6c8ebf;exitX=1;exitY=0.5;exitDx=0;exitDy=0;entryX=1.011;entryY=0.041;entryDx=0;entryDy=0;entryPerimeter=0;" edge="1" parent="1" source="224" target="184">
                    <mxGeometry relative="1" as="geometry">
                        <mxPoint x="2010" y="140" as="sourcePoint"/>
                        <mxPoint x="1740" y="70" as="targetPoint"/>
                        <Array as="points">
                            <mxPoint x="2010" y="149"/>
                            <mxPoint x="2010" y="90"/>
                            <mxPoint x="1740" y="90"/>
                            <mxPoint x="1740" y="119"/>
                        </Array>
                    </mxGeometry>
                </mxCell>
                <mxCell id="232" value="" style="edgeStyle=orthogonalEdgeStyle;rounded=0;orthogonalLoop=1;jettySize=auto;html=1;exitX=1;exitY=0.5;exitDx=0;exitDy=0;fillColor=#dae8fc;strokeColor=#6c8ebf;" edge="1" parent="1" source="228">
                    <mxGeometry relative="1" as="geometry">
                        <mxPoint x="2270" y="149" as="sourcePoint"/>
                        <mxPoint x="1750" y="330" as="targetPoint"/>
                        <Array as="points">
                            <mxPoint x="2290" y="149"/>
                            <mxPoint x="2290" y="330"/>
                        </Array>
                    </mxGeometry>
                </mxCell>
                <mxCell id="233" value="パスワード再設定&lt;br&gt;-アドレス入力画面" style="swimlane;html=1;fontStyle=0;childLayout=stackLayout;horizontal=1;startSize=30;fillColor=#dae8fc;horizontalStack=0;resizeParent=1;resizeLast=0;collapsible=1;marginBottom=0;swimlaneFillColor=#ffffff;align=center;rounded=0;shadow=0;comic=0;labelBackgroundColor=none;strokeWidth=1;fontFamily=Verdana;fontSize=12;strokeColor=#6c8ebf;" vertex="1" parent="1">
                    <mxGeometry x="1810" y="370" width="180" height="110" as="geometry"/>
                </mxCell>
                <mxCell id="234" value="・入力欄 -&amp;nbsp;メールアドレス" style="text;html=1;strokeColor=default;fillColor=none;spacingLeft=4;spacingRight=4;whiteSpace=wrap;overflow=hidden;rotatable=0;points=[[0,0.5],[1,0.5]];portConstraint=eastwest;" vertex="1" parent="233">
                    <mxGeometry y="30" width="180" height="26" as="geometry"/>
                </mxCell>
                <mxCell id="235" value="・送信する ボタン" style="text;html=1;strokeColor=default;fillColor=none;spacingLeft=4;spacingRight=4;whiteSpace=wrap;overflow=hidden;rotatable=0;points=[[0,0.5],[1,0.5]];portConstraint=eastwest;" vertex="1" parent="233">
                    <mxGeometry y="56" width="180" height="26" as="geometry"/>
                </mxCell>
                <mxCell id="236" value="・ログインページへのリンク" style="text;html=1;strokeColor=default;fillColor=none;spacingLeft=4;spacingRight=4;whiteSpace=wrap;overflow=hidden;rotatable=0;points=[[0,0.5],[1,0.5]];portConstraint=eastwest;" vertex="1" parent="233">
                    <mxGeometry y="82" width="180" height="26" as="geometry"/>
                </mxCell>
                <mxCell id="237" style="edgeStyle=orthogonalEdgeStyle;rounded=0;orthogonalLoop=1;jettySize=auto;html=1;exitX=1;exitY=0.5;exitDx=0;exitDy=0;fillColor=#dae8fc;strokeColor=#6c8ebf;" edge="1" parent="1" source="236">
                    <mxGeometry relative="1" as="geometry">
                        <mxPoint x="2000" y="490" as="sourcePoint"/>
                        <mxPoint x="2020" y="330" as="targetPoint"/>
                    </mxGeometry>
                </mxCell>
                <mxCell id="238" value="パスワード再設定&lt;br style=&quot;border-color: var(--border-color);&quot;&gt;-パスワード入力画面" style="swimlane;html=1;fontStyle=0;childLayout=stackLayout;horizontal=1;startSize=30;fillColor=#dae8fc;horizontalStack=0;resizeParent=1;resizeLast=0;collapsible=1;marginBottom=0;swimlaneFillColor=#ffffff;align=center;rounded=0;shadow=0;comic=0;labelBackgroundColor=none;strokeWidth=1;fontFamily=Verdana;fontSize=12;strokeColor=#6c8ebf;" vertex="1" parent="1">
                    <mxGeometry x="2191" y="370" width="180" height="110" as="geometry"/>
                </mxCell>
                <mxCell id="239" value="・入力欄 - パスワード" style="text;html=1;strokeColor=default;fillColor=none;spacingLeft=4;spacingRight=4;whiteSpace=wrap;overflow=hidden;rotatable=0;points=[[0,0.5],[1,0.5]];portConstraint=eastwest;" vertex="1" parent="238">
                    <mxGeometry y="30" width="180" height="26" as="geometry"/>
                </mxCell>
                <mxCell id="240" value="・入力欄 - パスワード(確認)" style="text;html=1;strokeColor=default;fillColor=none;spacingLeft=4;spacingRight=4;whiteSpace=wrap;overflow=hidden;rotatable=0;points=[[0,0.5],[1,0.5]];portConstraint=eastwest;" vertex="1" parent="238">
                    <mxGeometry y="56" width="180" height="26" as="geometry"/>
                </mxCell>
                <mxCell id="241" value="・変更する ボタン" style="text;html=1;strokeColor=default;fillColor=none;spacingLeft=4;spacingRight=4;whiteSpace=wrap;overflow=hidden;rotatable=0;points=[[0,0.5],[1,0.5]];portConstraint=eastwest;" vertex="1" parent="238">
                    <mxGeometry y="82" width="180" height="26" as="geometry"/>
                </mxCell>
                <mxCell id="242" style="edgeStyle=orthogonalEdgeStyle;rounded=0;orthogonalLoop=1;jettySize=auto;html=1;exitX=1;exitY=0.5;exitDx=0;exitDy=0;fillColor=#dae8fc;strokeColor=#6c8ebf;entryX=-0.006;entryY=0.05;entryDx=0;entryDy=0;entryPerimeter=0;jumpStyle=sharp;" edge="1" parent="1" source="244" target="238">
                    <mxGeometry relative="1" as="geometry">
                        <mxPoint x="2040" y="439.5" as="sourcePoint"/>
                        <mxPoint x="2070" y="308.5" as="targetPoint"/>
                    </mxGeometry>
                </mxCell>
                <mxCell id="243" value="" style="edgeStyle=orthogonalEdgeStyle;rounded=0;orthogonalLoop=1;jettySize=auto;html=1;exitX=1;exitY=0.5;exitDx=0;exitDy=0;fillColor=#dae8fc;strokeColor=#6c8ebf;entryX=0;entryY=0.5;entryDx=0;entryDy=0;jumpStyle=sharp;" edge="1" parent="1" source="235" target="244">
                    <mxGeometry relative="1" as="geometry">
                        <mxPoint x="1990" y="435" as="sourcePoint"/>
                        <mxPoint x="2209" y="381" as="targetPoint"/>
                        <Array as="points">
                            <mxPoint x="2040" y="435"/>
                            <mxPoint x="2040" y="388"/>
                        </Array>
                    </mxGeometry>
                </mxCell>
                <mxCell id="244" value="メールのリンクから遷移" style="ellipse;whiteSpace=wrap;html=1;fontSize=12;fillColor=#fff0c2;" vertex="1" parent="1">
                    <mxGeometry x="2060" y="360" width="90" height="55" as="geometry"/>
                </mxCell>
                <mxCell id="245" style="edgeStyle=orthogonalEdgeStyle;rounded=0;orthogonalLoop=1;jettySize=auto;html=1;exitX=1;exitY=0.5;exitDx=0;exitDy=0;fillColor=#dae8fc;strokeColor=#6c8ebf;entryX=0;entryY=0.064;entryDx=0;entryDy=0;entryPerimeter=0;" edge="1" parent="1" source="182" target="233">
                    <mxGeometry relative="1" as="geometry">
                        <mxPoint x="1740" y="450" as="sourcePoint"/>
                        <mxPoint x="1741" y="578" as="targetPoint"/>
                    </mxGeometry>
                </mxCell>
                <mxCell id="246" value="パスワード再設定&lt;br style=&quot;border-color: var(--border-color);&quot;&gt;-完了画面" style="swimlane;html=1;fontStyle=0;childLayout=stackLayout;horizontal=1;startSize=30;fillColor=#dae8fc;horizontalStack=0;resizeParent=1;resizeLast=0;collapsible=1;marginBottom=0;swimlaneFillColor=#ffffff;align=center;rounded=0;shadow=0;comic=0;labelBackgroundColor=none;strokeWidth=1;fontFamily=Verdana;fontSize=12;strokeColor=#6c8ebf;" vertex="1" parent="1">
                    <mxGeometry x="2450" y="370" width="180" height="60" as="geometry"/>
                </mxCell>
                <mxCell id="247" value="・ログインページへのリンク" style="text;html=1;strokeColor=default;fillColor=none;spacingLeft=4;spacingRight=4;whiteSpace=wrap;overflow=hidden;rotatable=0;points=[[0,0.5],[1,0.5]];portConstraint=eastwest;" vertex="1" parent="246">
                    <mxGeometry y="30" width="180" height="26" as="geometry"/>
                </mxCell>
                <mxCell id="248" style="edgeStyle=orthogonalEdgeStyle;rounded=0;orthogonalLoop=1;jettySize=auto;html=1;exitX=1;exitY=0.5;exitDx=0;exitDy=0;fillColor=#dae8fc;strokeColor=#6c8ebf;entryX=0;entryY=0.25;entryDx=0;entryDy=0;jumpStyle=sharp;" edge="1" parent="1" source="241" target="246">
                    <mxGeometry relative="1" as="geometry">
                        <mxPoint x="2380" y="382" as="sourcePoint"/>
                        <mxPoint x="2420" y="370" as="targetPoint"/>
                    </mxGeometry>
                </mxCell>
                <mxCell id="249" style="edgeStyle=orthogonalEdgeStyle;rounded=0;orthogonalLoop=1;jettySize=auto;html=1;exitX=1;exitY=0.25;exitDx=0;exitDy=0;fillColor=#dae8fc;strokeColor=#6c8ebf;jumpStyle=sharp;" edge="1" parent="1" source="246">
                    <mxGeometry relative="1" as="geometry">
                        <mxPoint x="2630" y="390" as="sourcePoint"/>
                        <mxPoint x="2290" y="290" as="targetPoint"/>
                        <Array as="points">
                            <mxPoint x="2650" y="385"/>
                            <mxPoint x="2650" y="290"/>
                        </Array>
                    </mxGeometry>
                </mxCell>
                <mxCell id="250" value="共通ヘッダーメニュー" style="swimlane;html=1;fontStyle=0;childLayout=stackLayout;horizontal=1;startSize=26;fillColor=#e0e0e0;horizontalStack=0;resizeParent=1;resizeLast=0;collapsible=1;marginBottom=0;swimlaneFillColor=#ffffff;align=center;rounded=0;shadow=0;comic=0;labelBackgroundColor=none;strokeWidth=1;fontFamily=Verdana;fontSize=12" vertex="1" parent="1">
                    <mxGeometry x="1230" y="110" width="181" height="270" as="geometry"/>
                </mxCell>
                <mxCell id="251" value="・ロゴ（トップページに戻る）" style="text;html=1;strokeColor=default;fillColor=none;spacingLeft=4;spacingRight=4;whiteSpace=wrap;overflow=hidden;rotatable=0;points=[[0,0.5],[1,0.5]];portConstraint=eastwest;" vertex="1" parent="250">
                    <mxGeometry y="26" width="181" height="26" as="geometry"/>
                </mxCell>
                <mxCell id="252" value="・新規登録ボタン" style="text;html=1;strokeColor=#6c8ebf;fillColor=#dae8fc;spacingLeft=4;spacingRight=4;whiteSpace=wrap;overflow=hidden;rotatable=0;points=[[0,0.5],[1,0.5]];portConstraint=eastwest;" vertex="1" parent="250">
                    <mxGeometry y="52" width="181" height="26" as="geometry"/>
                </mxCell>
                <mxCell id="253" value="・ログインボタン" style="text;html=1;strokeColor=#6c8ebf;fillColor=#dae8fc;spacingLeft=4;spacingRight=4;whiteSpace=wrap;overflow=hidden;rotatable=0;points=[[0,0.5],[1,0.5]];portConstraint=eastwest;" vertex="1" parent="250">
                    <mxGeometry y="78" width="181" height="26" as="geometry"/>
                </mxCell>
                <mxCell id="254" value="・ログアウトボタン" style="text;html=1;strokeColor=#b85450;fillColor=#f8cecc;spacingLeft=4;spacingRight=4;whiteSpace=wrap;overflow=hidden;rotatable=0;points=[[0,0.5],[1,0.5]];portConstraint=eastwest;" vertex="1" parent="250">
                    <mxGeometry y="104" width="181" height="26" as="geometry"/>
                </mxCell>
                <mxCell id="255" value="・トピック検索" style="text;html=1;spacingLeft=4;spacingRight=4;whiteSpace=wrap;overflow=hidden;rotatable=0;points=[[0,0.5],[1,0.5]];portConstraint=eastwest;" vertex="1" parent="250">
                    <mxGeometry y="130" width="181" height="26" as="geometry"/>
                </mxCell>
                <mxCell id="256" value="・トピック作成" style="text;html=1;strokeColor=#b85450;fillColor=#f8cecc;spacingLeft=4;spacingRight=4;whiteSpace=wrap;overflow=hidden;rotatable=0;points=[[0,0.5],[1,0.5]];portConstraint=eastwest;" vertex="1" parent="250">
                    <mxGeometry y="156" width="181" height="26" as="geometry"/>
                </mxCell>
                <mxCell id="257" value="・ユーザ情報編集" style="text;html=1;strokeColor=#b85450;fillColor=#f8cecc;spacingLeft=4;spacingRight=4;whiteSpace=wrap;overflow=hidden;rotatable=0;points=[[0,0.5],[1,0.5]];portConstraint=eastwest;" vertex="1" parent="250">
                    <mxGeometry y="182" width="181" height="26" as="geometry"/>
                </mxCell>
                <mxCell id="258" value="" style="text;html=1;strokeColor=default;fillColor=none;spacingLeft=4;spacingRight=4;whiteSpace=wrap;overflow=hidden;rotatable=0;points=[[0,0.5],[1,0.5]];portConstraint=eastwest;" vertex="1" parent="250">
                    <mxGeometry y="208" width="181" height="26" as="geometry"/>
                </mxCell>
                <mxCell id="259" value="&lt;font style=&quot;font-size: 20px;&quot;&gt;クローズドコンテンツの画面フロー（ユーザ側）&lt;/font&gt;" style="text;html=1;align=left;verticalAlign=middle;resizable=0;points=[];autosize=1;strokeColor=none;fillColor=none;" vertex="1" parent="1">
                    <mxGeometry x="1120" y="40" width="460" height="40" as="geometry"/>
                </mxCell>
                <mxCell id="260" value="非ログイン時" style="whiteSpace=wrap;html=1;fillColor=#cce5ff;strokeColor=#36393d;" vertex="1" parent="1">
                    <mxGeometry x="1120" y="110" width="90" height="20" as="geometry"/>
                </mxCell>
                <mxCell id="261" value="ログイン時" style="whiteSpace=wrap;html=1;fillColor=#ffcccc;strokeColor=#36393d;" vertex="1" parent="1">
                    <mxGeometry x="1120" y="135" width="90" height="20" as="geometry"/>
                </mxCell>
                <mxCell id="262" value="非ログイン時トップページ" style="swimlane;html=1;fontStyle=0;childLayout=stackLayout;horizontal=1;startSize=26;fillColor=#dae8fc;horizontalStack=0;resizeParent=1;resizeLast=0;collapsible=1;marginBottom=0;swimlaneFillColor=#ffffff;align=center;rounded=0;shadow=0;comic=0;labelBackgroundColor=none;strokeWidth=1;fontFamily=Verdana;fontSize=12;swimlaneLine=1;glass=0;strokeColor=#6c8ebf;" vertex="1" parent="1">
                    <mxGeometry x="1231" y="550" width="179" height="336" as="geometry">
                        <mxRectangle x="131" y="1840" width="110" height="30" as="alternateBounds"/>
                    </mxGeometry>
                </mxCell>
                <mxCell id="263" value="&lt;font style=&quot;font-size: 12px;&quot;&gt;・公開トピック一覧&lt;/font&gt;" style="text;html=1;strokeColor=default;fillColor=none;spacingLeft=4;spacingRight=4;whiteSpace=wrap;overflow=hidden;rotatable=0;points=[[0,0.5],[1,0.5]];portConstraint=eastwest;" vertex="1" parent="262">
                    <mxGeometry y="26" width="179" height="26" as="geometry"/>
                </mxCell>
                <mxCell id="264" value="・新規登録ボタン" style="text;html=1;strokeColor=#6c8ebf;fillColor=#dae8fc;spacingLeft=4;spacingRight=4;whiteSpace=wrap;overflow=hidden;rotatable=0;points=[[0,0.5],[1,0.5]];portConstraint=eastwest;" vertex="1" parent="262">
                    <mxGeometry y="52" width="179" height="26" as="geometry"/>
                </mxCell>
                <mxCell id="265" value="ログイン" style="swimlane;html=1;fontStyle=0;childLayout=stackLayout;horizontal=1;startSize=26;fillColor=#dae8fc;horizontalStack=0;resizeParent=1;resizeLast=0;collapsible=1;marginBottom=0;swimlaneFillColor=#ffffff;align=center;rounded=0;shadow=0;comic=0;labelBackgroundColor=none;strokeWidth=1;fontFamily=Verdana;fontSize=12;strokeColor=#6c8ebf;" vertex="1" parent="1">
                    <mxGeometry x="1530" y="370" width="180" height="220" as="geometry"/>
                </mxCell>
                <mxCell id="266" value="・IDまたはメールアドレス" style="text;html=1;strokeColor=default;fillColor=none;spacingLeft=4;spacingRight=4;whiteSpace=wrap;overflow=hidden;rotatable=0;points=[[0,0.5],[1,0.5]];portConstraint=eastwest;" vertex="1" parent="265">
                    <mxGeometry y="26" width="180" height="26" as="geometry"/>
                </mxCell>
                <mxCell id="267" value="・パスワード" style="text;html=1;strokeColor=default;fillColor=none;spacingLeft=4;spacingRight=4;whiteSpace=wrap;overflow=hidden;rotatable=0;points=[[0,0.5],[1,0.5]];portConstraint=eastwest;" vertex="1" parent="265">
                    <mxGeometry y="52" width="180" height="26" as="geometry"/>
                </mxCell>
                <mxCell id="268" value="・パスワードを忘れた場合" style="text;html=1;strokeColor=default;fillColor=none;spacingLeft=4;spacingRight=4;whiteSpace=wrap;overflow=hidden;rotatable=0;points=[[0,0.5],[1,0.5]];portConstraint=eastwest;" vertex="1" parent="265">
                    <mxGeometry y="78" width="180" height="26" as="geometry"/>
                </mxCell>
                <mxCell id="269" value="・新規登録画面へのリンク" style="text;html=1;strokeColor=default;fillColor=none;spacingLeft=4;spacingRight=4;whiteSpace=wrap;overflow=hidden;rotatable=0;points=[[0,0.5],[1,0.5]];portConstraint=eastwest;" vertex="1" parent="265">
                    <mxGeometry y="104" width="180" height="26" as="geometry"/>
                </mxCell>
                <mxCell id="270" value="新規登録-入力画面" style="swimlane;html=1;fontStyle=0;childLayout=stackLayout;horizontal=1;startSize=26;fillColor=#dae8fc;horizontalStack=0;resizeParent=1;resizeLast=0;collapsible=1;marginBottom=0;swimlaneFillColor=#ffffff;align=center;rounded=0;shadow=0;comic=0;labelBackgroundColor=none;strokeWidth=1;fontFamily=Verdana;fontSize=12;strokeColor=#6c8ebf;" vertex="1" parent="1">
                    <mxGeometry x="1530" y="110" width="180" height="220" as="geometry">
                        <mxRectangle x="1520" y="100" width="90" height="30" as="alternateBounds"/>
                    </mxGeometry>
                </mxCell>
                <mxCell id="271" value="・入力欄 - ID" style="text;html=1;strokeColor=default;fillColor=none;spacingLeft=4;spacingRight=4;whiteSpace=wrap;overflow=hidden;rotatable=0;points=[[0,0.5],[1,0.5]];portConstraint=eastwest;" vertex="1" parent="270">
                    <mxGeometry y="26" width="180" height="26" as="geometry"/>
                </mxCell>
                <mxCell id="272" value="・入力欄 -&amp;nbsp;メールアドレス" style="text;html=1;strokeColor=default;fillColor=none;spacingLeft=4;spacingRight=4;whiteSpace=wrap;overflow=hidden;rotatable=0;points=[[0,0.5],[1,0.5]];portConstraint=eastwest;" vertex="1" parent="270">
                    <mxGeometry y="52" width="180" height="26" as="geometry"/>
                </mxCell>
                <mxCell id="273" value="・入力欄 -&amp;nbsp;パスワード" style="text;html=1;strokeColor=default;fillColor=none;spacingLeft=4;spacingRight=4;whiteSpace=wrap;overflow=hidden;rotatable=0;points=[[0,0.5],[1,0.5]];portConstraint=eastwest;" vertex="1" parent="270">
                    <mxGeometry y="78" width="180" height="26" as="geometry"/>
                </mxCell>
                <mxCell id="274" value="・確認ボタン" style="text;html=1;strokeColor=default;fillColor=none;spacingLeft=4;spacingRight=4;whiteSpace=wrap;overflow=hidden;rotatable=0;points=[[0,0.5],[1,0.5]];portConstraint=eastwest;" vertex="1" parent="270">
                    <mxGeometry y="104" width="180" height="26" as="geometry"/>
                </mxCell>
                <mxCell id="275" value="・ログインページへのリンク" style="text;html=1;strokeColor=default;fillColor=none;spacingLeft=4;spacingRight=4;whiteSpace=wrap;overflow=hidden;rotatable=0;points=[[0,0.5],[1,0.5]];portConstraint=eastwest;" vertex="1" parent="270">
                    <mxGeometry y="130" width="180" height="26" as="geometry"/>
                </mxCell>
                <mxCell id="276" style="edgeStyle=orthogonalEdgeStyle;rounded=0;orthogonalLoop=1;jettySize=auto;html=1;exitX=1;exitY=0.5;exitDx=0;exitDy=0;entryX=-0.007;entryY=0.069;entryDx=0;entryDy=0;entryPerimeter=0;fillColor=#dae8fc;strokeColor=#6c8ebf;" edge="1" parent="1" source="252" target="270">
                    <mxGeometry relative="1" as="geometry"/>
                </mxCell>
                <mxCell id="277" style="edgeStyle=orthogonalEdgeStyle;rounded=0;orthogonalLoop=1;jettySize=auto;html=1;exitX=1;exitY=0.5;exitDx=0;exitDy=0;entryX=0;entryY=0.058;entryDx=0;entryDy=0;entryPerimeter=0;fillColor=#dae8fc;strokeColor=#6c8ebf;" edge="1" parent="1" source="253" target="265">
                    <mxGeometry relative="1" as="geometry"/>
                </mxCell>
                <mxCell id="278" value="&lt;font style=&quot;font-size: 20px;&quot;&gt;クローズドコンテンツの操作フロー（ユーザ側）&lt;/font&gt;" style="text;html=1;align=left;verticalAlign=middle;resizable=0;points=[];autosize=1;strokeColor=none;fillColor=none;" vertex="1" parent="1">
                    <mxGeometry x="30" y="40" width="460" height="40" as="geometry"/>
                </mxCell>
                <mxCell id="279" value="対外コンテンツからリンク遷移" style="whiteSpace=wrap;html=1;" vertex="1" parent="1">
                    <mxGeometry x="30" y="140" width="120" height="60" as="geometry"/>
                </mxCell>
                <mxCell id="280" value="" style="edgeStyle=none;orthogonalLoop=1;jettySize=auto;html=1;rounded=0;" edge="1" parent="1">
                    <mxGeometry width="100" relative="1" as="geometry">
                        <mxPoint x="150" y="170" as="sourcePoint"/>
                        <mxPoint x="190" y="170" as="targetPoint"/>
                        <Array as="points"/>
                    </mxGeometry>
                </mxCell>
                <mxCell id="281" value="ログイン判定" style="whiteSpace=wrap;html=1;" vertex="1" parent="1">
                    <mxGeometry x="190" y="140" width="120" height="60" as="geometry"/>
                </mxCell>
                <mxCell id="282" value="直リンク" style="whiteSpace=wrap;html=1;" vertex="1" parent="1">
                    <mxGeometry x="30" y="215" width="120" height="60" as="geometry"/>
                </mxCell>
                <mxCell id="283" value="" style="edgeStyle=none;orthogonalLoop=1;jettySize=auto;html=1;rounded=0;entryX=0;entryY=0.5;entryDx=0;entryDy=0;" edge="1" parent="1" target="281">
                    <mxGeometry width="100" relative="1" as="geometry">
                        <mxPoint x="150" y="244.62" as="sourcePoint"/>
                        <mxPoint x="190" y="245" as="targetPoint"/>
                        <Array as="points">
                            <mxPoint x="170" y="245"/>
                            <mxPoint x="170" y="170"/>
                        </Array>
                    </mxGeometry>
                </mxCell>
                <mxCell id="284" value="トップページ&lt;br&gt;（非ログイン）&lt;br&gt;表示" style="whiteSpace=wrap;html=1;" vertex="1" parent="1">
                    <mxGeometry x="350" y="140" width="120" height="60" as="geometry"/>
                </mxCell>
                <mxCell id="285" value="&lt;font style=&quot;font-size: 10px;&quot;&gt;初めてだと&lt;br&gt;何ができるかわからない&lt;br&gt;&lt;/font&gt;" style="ellipse;shape=cloud;whiteSpace=wrap;html=1;fillColor=#f5f5f5;fontColor=#333333;strokeColor=#666666;" vertex="1" parent="1">
                    <mxGeometry x="360" y="95" width="170" height="50" as="geometry"/>
                </mxCell>
                <mxCell id="286" value="&lt;font style=&quot;font-size: 9px;&quot;&gt;チュートリアル&lt;/font&gt;" style="ellipse;whiteSpace=wrap;html=1;fillColor=#fff2cc;strokeColor=#d6b656;" vertex="1" parent="1">
                    <mxGeometry x="480" y="95" width="80" height="20" as="geometry"/>
                </mxCell>
                <mxCell id="287" value="" style="edgeStyle=none;orthogonalLoop=1;jettySize=auto;html=1;rounded=0;" edge="1" parent="1">
                    <mxGeometry width="100" relative="1" as="geometry">
                        <mxPoint x="310" y="169.86" as="sourcePoint"/>
                        <mxPoint x="350" y="169.86" as="targetPoint"/>
                        <Array as="points"/>
                    </mxGeometry>
                </mxCell>
                <mxCell id="288" value="トップページ&lt;br style=&quot;border-color: var(--border-color);&quot;&gt;（ログイン）&lt;br style=&quot;border-color: var(--border-color);&quot;&gt;表示" style="whiteSpace=wrap;html=1;" vertex="1" parent="1">
                    <mxGeometry x="350" y="380" width="120" height="60" as="geometry"/>
                </mxCell>
                <mxCell id="289" value="" style="edgeStyle=none;orthogonalLoop=1;jettySize=auto;html=1;rounded=0;" edge="1" parent="1">
                    <mxGeometry width="100" relative="1" as="geometry">
                        <mxPoint x="310" y="170" as="sourcePoint"/>
                        <mxPoint x="350" y="409.8600000000001" as="targetPoint"/>
                        <Array as="points">
                            <mxPoint x="330" y="170"/>
                            <mxPoint x="330" y="410"/>
                        </Array>
                    </mxGeometry>
                </mxCell>
                <mxCell id="290" value="アプリの説明が&lt;br&gt;読める" style="whiteSpace=wrap;html=1;" vertex="1" parent="1">
                    <mxGeometry x="510" y="140" width="120" height="60" as="geometry"/>
                </mxCell>
                <mxCell id="291" value="" style="edgeStyle=none;orthogonalLoop=1;jettySize=auto;html=1;rounded=0;" edge="1" parent="1">
                    <mxGeometry width="100" relative="1" as="geometry">
                        <mxPoint x="470" y="169.86" as="sourcePoint"/>
                        <mxPoint x="510" y="169.86" as="targetPoint"/>
                        <Array as="points"/>
                    </mxGeometry>
                </mxCell>
                <mxCell id="292" value="ログイン時トップページ" style="swimlane;html=1;fontStyle=0;childLayout=stackLayout;horizontal=1;startSize=26;fillColor=#f8cecc;horizontalStack=0;resizeParent=1;resizeLast=0;collapsible=1;marginBottom=0;swimlaneFillColor=#ffffff;align=center;rounded=0;shadow=0;comic=0;labelBackgroundColor=none;strokeWidth=1;fontFamily=Verdana;fontSize=12;swimlaneLine=1;glass=0;strokeColor=#b85450;" vertex="1" parent="1">
                    <mxGeometry x="1231" y="920" width="179" height="336" as="geometry">
                        <mxRectangle x="131" y="1840" width="110" height="30" as="alternateBounds"/>
                    </mxGeometry>
                </mxCell>
                <mxCell id="293" value="&lt;font style=&quot;font-size: 12px;&quot;&gt;・公開トピック一覧&lt;/font&gt;" style="text;html=1;strokeColor=default;fillColor=none;spacingLeft=4;spacingRight=4;whiteSpace=wrap;overflow=hidden;rotatable=0;points=[[0,0.5],[1,0.5]];portConstraint=eastwest;" vertex="1" parent="292">
                    <mxGeometry y="26" width="179" height="26" as="geometry"/>
                </mxCell>
                <mxCell id="294" value="&lt;font style=&quot;font-size: 12px;&quot;&gt;・トピック作成&lt;/font&gt;" style="text;html=1;strokeColor=#b85450;fillColor=#f8cecc;spacingLeft=4;spacingRight=4;whiteSpace=wrap;overflow=hidden;rotatable=0;points=[[0,0.5],[1,0.5]];portConstraint=eastwest;" vertex="1" parent="292">
                    <mxGeometry y="52" width="179" height="26" as="geometry"/>
                </mxCell>
                <mxCell id="295" style="edgeStyle=orthogonalEdgeStyle;rounded=0;orthogonalLoop=1;jettySize=auto;html=1;exitX=1;exitY=0.5;exitDx=0;exitDy=0;entryX=1.002;entryY=0.047;entryDx=0;entryDy=0;entryPerimeter=0;" edge="1" parent="1" target="262">
                    <mxGeometry relative="1" as="geometry">
                        <mxPoint x="1411.0010000000002" y="575.824" as="targetPoint"/>
                        <Array as="points">
                            <mxPoint x="1434" y="155"/>
                            <mxPoint x="1434" y="282"/>
                            <mxPoint x="1433" y="282"/>
                            <mxPoint x="1433" y="566"/>
                            <mxPoint x="1410" y="566"/>
                        </Array>
                        <mxPoint x="1413.9700000000003" y="155" as="sourcePoint"/>
                    </mxGeometry>
                </mxCell>
                <mxCell id="296" value="ユーザ更新" style="whiteSpace=wrap;html=1;" vertex="1" parent="1">
                    <mxGeometry x="350" y="960" width="120" height="60" as="geometry"/>
                </mxCell>
                <mxCell id="297" style="edgeStyle=orthogonalEdgeStyle;rounded=0;orthogonalLoop=1;jettySize=auto;html=1;exitX=1;exitY=0.5;exitDx=0;exitDy=0;fillColor=#dae8fc;strokeColor=#6c8ebf;entryX=1.006;entryY=0.05;entryDx=0;entryDy=0;entryPerimeter=0;" edge="1" parent="1" source="275" target="265">
                    <mxGeometry relative="1" as="geometry">
                        <mxPoint x="1710" y="230" as="sourcePoint"/>
                        <mxPoint x="1760" y="330" as="targetPoint"/>
                        <Array as="points">
                            <mxPoint x="1750" y="253"/>
                            <mxPoint x="1750" y="381"/>
                        </Array>
                    </mxGeometry>
                </mxCell>
                <mxCell id="298" value="新規登録-確認画面" style="swimlane;html=1;fontStyle=0;childLayout=stackLayout;horizontal=1;startSize=26;fillColor=#dae8fc;horizontalStack=0;resizeParent=1;resizeLast=0;collapsible=1;marginBottom=0;swimlaneFillColor=#ffffff;align=center;rounded=0;shadow=0;comic=0;labelBackgroundColor=none;strokeWidth=1;fontFamily=Verdana;fontSize=12;strokeColor=#6c8ebf;" vertex="1" parent="1">
                    <mxGeometry x="1810" y="110" width="180" height="80" as="geometry">
                        <mxRectangle x="1520" y="100" width="90" height="30" as="alternateBounds"/>
                    </mxGeometry>
                </mxCell>
                <mxCell id="299" value="・修正する ボタン" style="text;html=1;strokeColor=default;fillColor=none;spacingLeft=4;spacingRight=4;whiteSpace=wrap;overflow=hidden;rotatable=0;points=[[0,0.5],[1,0.5]];portConstraint=eastwest;" vertex="1" parent="298">
                    <mxGeometry y="26" width="180" height="26" as="geometry"/>
                </mxCell>
                <mxCell id="300" value="・完了 ボタン" style="text;html=1;strokeColor=default;fillColor=none;spacingLeft=4;spacingRight=4;whiteSpace=wrap;overflow=hidden;rotatable=0;points=[[0,0.5],[1,0.5]];portConstraint=eastwest;" vertex="1" parent="298">
                    <mxGeometry y="52" width="180" height="28" as="geometry"/>
                </mxCell>
                <mxCell id="301" value="&lt;font size=&quot;1&quot;&gt;入力したアドレス宛にメール送信する方式にする？&lt;/font&gt;" style="ellipse;whiteSpace=wrap;html=1;fillColor=#fff2cc;strokeColor=#d6b656;" vertex="1" parent="1">
                    <mxGeometry x="1580" y="60" width="130" height="50" as="geometry"/>
                </mxCell>
                <mxCell id="302" value="新規登録-完了画面" style="swimlane;html=1;fontStyle=0;childLayout=stackLayout;horizontal=1;startSize=26;fillColor=#dae8fc;horizontalStack=0;resizeParent=1;resizeLast=0;collapsible=1;marginBottom=0;swimlaneFillColor=#ffffff;align=center;rounded=0;shadow=0;comic=0;labelBackgroundColor=none;strokeWidth=1;fontFamily=Verdana;fontSize=12;strokeColor=#6c8ebf;" vertex="1" parent="1">
                    <mxGeometry x="2090" y="110" width="180" height="52" as="geometry">
                        <mxRectangle x="1520" y="100" width="90" height="30" as="alternateBounds"/>
                    </mxGeometry>
                </mxCell>
                <mxCell id="303" value="・ログインページへのリンク" style="text;html=1;strokeColor=default;fillColor=none;spacingLeft=4;spacingRight=4;whiteSpace=wrap;overflow=hidden;rotatable=0;points=[[0,0.5],[1,0.5]];portConstraint=eastwest;" vertex="1" parent="302">
                    <mxGeometry y="26" width="180" height="26" as="geometry"/>
                </mxCell>
                <mxCell id="304" style="edgeStyle=orthogonalEdgeStyle;rounded=0;orthogonalLoop=1;jettySize=auto;html=1;exitX=1;exitY=0.5;exitDx=0;exitDy=0;entryX=-0.006;entryY=0.163;entryDx=0;entryDy=0;entryPerimeter=0;fillColor=#dae8fc;strokeColor=#6c8ebf;" edge="1" parent="1" source="274" target="298">
                    <mxGeometry relative="1" as="geometry">
                        <mxPoint x="1720" y="230" as="sourcePoint"/>
                        <mxPoint x="1722" y="361" as="targetPoint"/>
                        <Array as="points">
                            <mxPoint x="1770" y="227"/>
                            <mxPoint x="1770" y="123"/>
                        </Array>
                    </mxGeometry>
                </mxCell>
                <mxCell id="305" style="edgeStyle=orthogonalEdgeStyle;rounded=0;orthogonalLoop=1;jettySize=auto;html=1;exitX=1;exitY=0.5;exitDx=0;exitDy=0;entryX=0;entryY=0.25;entryDx=0;entryDy=0;fillColor=#dae8fc;strokeColor=#6c8ebf;" edge="1" parent="1" source="300" target="302">
                    <mxGeometry relative="1" as="geometry">
                        <mxPoint x="1980" y="239" as="sourcePoint"/>
                        <mxPoint x="2079" y="135" as="targetPoint"/>
                    </mxGeometry>
                </mxCell>
                <mxCell id="306" style="edgeStyle=orthogonalEdgeStyle;rounded=0;orthogonalLoop=1;jettySize=auto;html=1;fillColor=#dae8fc;strokeColor=#6c8ebf;exitX=1;exitY=0.5;exitDx=0;exitDy=0;entryX=1.011;entryY=0.041;entryDx=0;entryDy=0;entryPerimeter=0;" edge="1" parent="1" source="299" target="270">
                    <mxGeometry relative="1" as="geometry">
                        <mxPoint x="2010" y="140" as="sourcePoint"/>
                        <mxPoint x="1740" y="70" as="targetPoint"/>
                        <Array as="points">
                            <mxPoint x="2010" y="149"/>
                            <mxPoint x="2010" y="90"/>
                            <mxPoint x="1740" y="90"/>
                            <mxPoint x="1740" y="119"/>
                        </Array>
                    </mxGeometry>
                </mxCell>
                <mxCell id="307" value="" style="edgeStyle=orthogonalEdgeStyle;rounded=0;orthogonalLoop=1;jettySize=auto;html=1;exitX=1;exitY=0.5;exitDx=0;exitDy=0;fillColor=#dae8fc;strokeColor=#6c8ebf;" edge="1" parent="1" source="303">
                    <mxGeometry relative="1" as="geometry">
                        <mxPoint x="2270" y="149" as="sourcePoint"/>
                        <mxPoint x="1750" y="330" as="targetPoint"/>
                        <Array as="points">
                            <mxPoint x="2290" y="149"/>
                            <mxPoint x="2290" y="330"/>
                        </Array>
                    </mxGeometry>
                </mxCell>
                <mxCell id="308" value="パスワード再設定&lt;br&gt;-アドレス入力画面" style="swimlane;html=1;fontStyle=0;childLayout=stackLayout;horizontal=1;startSize=30;fillColor=#dae8fc;horizontalStack=0;resizeParent=1;resizeLast=0;collapsible=1;marginBottom=0;swimlaneFillColor=#ffffff;align=center;rounded=0;shadow=0;comic=0;labelBackgroundColor=none;strokeWidth=1;fontFamily=Verdana;fontSize=12;strokeColor=#6c8ebf;" vertex="1" parent="1">
                    <mxGeometry x="1810" y="370" width="180" height="110" as="geometry"/>
                </mxCell>
                <mxCell id="309" value="・入力欄 -&amp;nbsp;メールアドレス" style="text;html=1;strokeColor=default;fillColor=none;spacingLeft=4;spacingRight=4;whiteSpace=wrap;overflow=hidden;rotatable=0;points=[[0,0.5],[1,0.5]];portConstraint=eastwest;" vertex="1" parent="308">
                    <mxGeometry y="30" width="180" height="26" as="geometry"/>
                </mxCell>
                <mxCell id="310" value="・送信する ボタン" style="text;html=1;strokeColor=default;fillColor=none;spacingLeft=4;spacingRight=4;whiteSpace=wrap;overflow=hidden;rotatable=0;points=[[0,0.5],[1,0.5]];portConstraint=eastwest;" vertex="1" parent="308">
                    <mxGeometry y="56" width="180" height="26" as="geometry"/>
                </mxCell>
                <mxCell id="311" value="・ログインページへのリンク" style="text;html=1;strokeColor=default;fillColor=none;spacingLeft=4;spacingRight=4;whiteSpace=wrap;overflow=hidden;rotatable=0;points=[[0,0.5],[1,0.5]];portConstraint=eastwest;" vertex="1" parent="308">
                    <mxGeometry y="82" width="180" height="26" as="geometry"/>
                </mxCell>
                <mxCell id="312" style="edgeStyle=orthogonalEdgeStyle;rounded=0;orthogonalLoop=1;jettySize=auto;html=1;exitX=1;exitY=0.5;exitDx=0;exitDy=0;fillColor=#dae8fc;strokeColor=#6c8ebf;" edge="1" parent="1" source="311">
                    <mxGeometry relative="1" as="geometry">
                        <mxPoint x="2000" y="490" as="sourcePoint"/>
                        <mxPoint x="2020" y="330" as="targetPoint"/>
                    </mxGeometry>
                </mxCell>
                <mxCell id="313" value="パスワード再設定&lt;br style=&quot;border-color: var(--border-color);&quot;&gt;-パスワード入力画面" style="swimlane;html=1;fontStyle=0;childLayout=stackLayout;horizontal=1;startSize=30;fillColor=#dae8fc;horizontalStack=0;resizeParent=1;resizeLast=0;collapsible=1;marginBottom=0;swimlaneFillColor=#ffffff;align=center;rounded=0;shadow=0;comic=0;labelBackgroundColor=none;strokeWidth=1;fontFamily=Verdana;fontSize=12;strokeColor=#6c8ebf;" vertex="1" parent="1">
                    <mxGeometry x="2191" y="370" width="180" height="110" as="geometry"/>
                </mxCell>
                <mxCell id="314" value="・入力欄 - パスワード" style="text;html=1;strokeColor=default;fillColor=none;spacingLeft=4;spacingRight=4;whiteSpace=wrap;overflow=hidden;rotatable=0;points=[[0,0.5],[1,0.5]];portConstraint=eastwest;" vertex="1" parent="313">
                    <mxGeometry y="30" width="180" height="26" as="geometry"/>
                </mxCell>
                <mxCell id="315" value="・入力欄 - パスワード(確認)" style="text;html=1;strokeColor=default;fillColor=none;spacingLeft=4;spacingRight=4;whiteSpace=wrap;overflow=hidden;rotatable=0;points=[[0,0.5],[1,0.5]];portConstraint=eastwest;" vertex="1" parent="313">
                    <mxGeometry y="56" width="180" height="26" as="geometry"/>
                </mxCell>
                <mxCell id="316" value="・変更する ボタン" style="text;html=1;strokeColor=default;fillColor=none;spacingLeft=4;spacingRight=4;whiteSpace=wrap;overflow=hidden;rotatable=0;points=[[0,0.5],[1,0.5]];portConstraint=eastwest;" vertex="1" parent="313">
                    <mxGeometry y="82" width="180" height="26" as="geometry"/>
                </mxCell>
                <mxCell id="317" style="edgeStyle=orthogonalEdgeStyle;rounded=0;orthogonalLoop=1;jettySize=auto;html=1;exitX=1;exitY=0.5;exitDx=0;exitDy=0;fillColor=#dae8fc;strokeColor=#6c8ebf;entryX=-0.006;entryY=0.05;entryDx=0;entryDy=0;entryPerimeter=0;jumpStyle=sharp;" edge="1" parent="1" source="319" target="313">
                    <mxGeometry relative="1" as="geometry">
                        <mxPoint x="2040" y="439.5" as="sourcePoint"/>
                        <mxPoint x="2070" y="308.5" as="targetPoint"/>
                    </mxGeometry>
                </mxCell>
                <mxCell id="318" value="" style="edgeStyle=orthogonalEdgeStyle;rounded=0;orthogonalLoop=1;jettySize=auto;html=1;exitX=1;exitY=0.5;exitDx=0;exitDy=0;fillColor=#dae8fc;strokeColor=#6c8ebf;entryX=0;entryY=0.5;entryDx=0;entryDy=0;jumpStyle=sharp;" edge="1" parent="1" source="310" target="319">
                    <mxGeometry relative="1" as="geometry">
                        <mxPoint x="1990" y="435" as="sourcePoint"/>
                        <mxPoint x="2209" y="381" as="targetPoint"/>
                        <Array as="points">
                            <mxPoint x="2040" y="435"/>
                            <mxPoint x="2040" y="388"/>
                        </Array>
                    </mxGeometry>
                </mxCell>
                <mxCell id="319" value="メールのリンクから遷移" style="ellipse;whiteSpace=wrap;html=1;fontSize=12;fillColor=#fff0c2;" vertex="1" parent="1">
                    <mxGeometry x="2060" y="360" width="90" height="55" as="geometry"/>
                </mxCell>
                <mxCell id="320" style="edgeStyle=orthogonalEdgeStyle;rounded=0;orthogonalLoop=1;jettySize=auto;html=1;exitX=1;exitY=0.5;exitDx=0;exitDy=0;fillColor=#dae8fc;strokeColor=#6c8ebf;entryX=0;entryY=0.064;entryDx=0;entryDy=0;entryPerimeter=0;" edge="1" parent="1" source="268" target="308">
                    <mxGeometry relative="1" as="geometry">
                        <mxPoint x="1740" y="450" as="sourcePoint"/>
                        <mxPoint x="1741" y="578" as="targetPoint"/>
                    </mxGeometry>
                </mxCell>
                <mxCell id="321" value="パスワード再設定&lt;br style=&quot;border-color: var(--border-color);&quot;&gt;-完了画面" style="swimlane;html=1;fontStyle=0;childLayout=stackLayout;horizontal=1;startSize=30;fillColor=#dae8fc;horizontalStack=0;resizeParent=1;resizeLast=0;collapsible=1;marginBottom=0;swimlaneFillColor=#ffffff;align=center;rounded=0;shadow=0;comic=0;labelBackgroundColor=none;strokeWidth=1;fontFamily=Verdana;fontSize=12;strokeColor=#6c8ebf;" vertex="1" parent="1">
                    <mxGeometry x="2450" y="370" width="180" height="60" as="geometry"/>
                </mxCell>
                <mxCell id="322" value="・ログインページへのリンク" style="text;html=1;strokeColor=default;fillColor=none;spacingLeft=4;spacingRight=4;whiteSpace=wrap;overflow=hidden;rotatable=0;points=[[0,0.5],[1,0.5]];portConstraint=eastwest;" vertex="1" parent="321">
                    <mxGeometry y="30" width="180" height="26" as="geometry"/>
                </mxCell>
                <mxCell id="323" style="edgeStyle=orthogonalEdgeStyle;rounded=0;orthogonalLoop=1;jettySize=auto;html=1;exitX=1;exitY=0.5;exitDx=0;exitDy=0;fillColor=#dae8fc;strokeColor=#6c8ebf;entryX=0;entryY=0.25;entryDx=0;entryDy=0;jumpStyle=sharp;" edge="1" parent="1" source="316" target="321">
                    <mxGeometry relative="1" as="geometry">
                        <mxPoint x="2380" y="382" as="sourcePoint"/>
                        <mxPoint x="2420" y="370" as="targetPoint"/>
                    </mxGeometry>
                </mxCell>
                <mxCell id="324" style="edgeStyle=orthogonalEdgeStyle;rounded=0;orthogonalLoop=1;jettySize=auto;html=1;exitX=1;exitY=0.25;exitDx=0;exitDy=0;fillColor=#dae8fc;strokeColor=#6c8ebf;jumpStyle=sharp;" edge="1" parent="1" source="321">
                    <mxGeometry relative="1" as="geometry">
                        <mxPoint x="2630" y="390" as="sourcePoint"/>
                        <mxPoint x="2290" y="290" as="targetPoint"/>
                        <Array as="points">
                            <mxPoint x="2650" y="385"/>
                            <mxPoint x="2650" y="290"/>
                        </Array>
                    </mxGeometry>
                </mxCell>
                <mxCell id="325" value="&lt;font style=&quot;font-size: 9px;&quot;&gt;操作よくわからないっていう人のかわりに&lt;/font&gt;" style="ellipse;whiteSpace=wrap;html=1;fillColor=#fff2cc;strokeColor=#d6b656;" vertex="1" parent="1">
                    <mxGeometry x="450" y="950" width="120" height="40" as="geometry"/>
                </mxCell>
            </root>
        </mxGraphModel>
    </diagram>
</mxfile>